<svg xmlns="http://www.w3.org/2000/svg" width="24" height="24" viewBox="0 0 24 24"><defs><style>.a{fill:#fff;opacity:0;}.b{fill:#fff;}</style></defs><g transform="translate(-1053 -48)"><rect class="a" width="24" height="24" transform="translate(1053 48)"/><g transform="translate(737.491 -702.892)"><path class="b" d="M329.171,753.736a1.519,1.519,0,1,1-1.519,1.519A1.519,1.519,0,0,1,329.171,753.736Z" transform="translate(4.718 1.105)"/><path class="b" d="M339.508,757.879a6.825,6.825,0,0,0-.607-2.887,5.959,5.959,0,0,0-3.494-3.494,11.915,11.915,0,0,0-2.887-.607H322.5a6.821,6.821,0,0,0-2.885.607,5.96,5.96,0,0,0-3.494,3.494,11.869,11.869,0,0,0-.608,2.887V767.9a6.826,6.826,0,0,0,.608,2.885,5.945,5.945,0,0,0,3.494,3.494,11.864,11.864,0,0,0,2.885.608h10.025a6.828,6.828,0,0,0,2.887-.608,5.952,5.952,0,0,0,3.494-3.494,11.921,11.921,0,0,0,.607-2.885V757.879Zm-2.279,9.872a5.782,5.782,0,0,1-.455,2.279,4.18,4.18,0,0,1-2.279,2.279,11.367,11.367,0,0,1-2.279.455H322.5a5.78,5.78,0,0,1-2.277-.455,4.18,4.18,0,0,1-2.279-2.279,11.361,11.361,0,0,1-.455-2.279v-9.721a5.761,5.761,0,0,1,.455-2.279,4.183,4.183,0,0,1,2.279-2.277,11.47,11.47,0,0,1,2.277-.457h9.721a5.783,5.783,0,0,1,2.279.457,4.183,4.183,0,0,1,2.279,2.277,11.4,11.4,0,0,1,.455,2.279v4.861A23.494,23.494,0,0,1,337.23,767.752Z" transform="translate(0 0)"/><path class="b" d="M325.784,755.049a6.158,6.158,0,0,0-6.227,6.09v.137a6.228,6.228,0,0,0,12.455,0,6.159,6.159,0,0,0-6.09-6.228Q325.853,755.047,325.784,755.049Zm0,10.328a4.1,4.1,0,1,1,4.1-4.1h0a4.082,4.082,0,0,1-4.067,4.1Z" transform="translate(1.573 1.615)"/></g></g></svg>