<svg xmlns="http://www.w3.org/2000/svg" width="24" height="24" viewBox="0 0 24 24"><defs><style>.a,.b{fill:#fff;}.a{opacity:0;}.b{opacity:0.902;}</style></defs><g transform="translate(-1273 -43)"><rect class="a" width="24" height="24" transform="translate(1273 43)"/><path class="b" d="M1286,46a7.055,7.055,0,0,0-7,7.093,7.181,7.181,0,0,0,.84,3.371l5.777,8.307a.435.435,0,0,0,.766,0l5.779-8.311a7.181,7.181,0,0,0,.838-3.367A7.055,7.055,0,0,0,1286,46Zm0,10.64a3.547,3.547,0,1,1,3.5-3.547A3.528,3.528,0,0,1,1286,56.64Z" transform="translate(-1)"/></g></svg>