<svg xmlns="http://www.w3.org/2000/svg" width="24" height="24" viewBox="0 0 24 24"><defs><style>.a{fill:#fff;opacity:0;}.b{fill:#fff;}</style></defs><g transform="translate(-979 -45)"><rect class="a" width="24" height="24" transform="translate(979 45)"/><path class="b" d="M974.372,56.108l5.074,1.874,1.964,6.252a.6.6,0,0,0,.949.283l2.829-2.282a.851.851,0,0,1,1.029-.028l5.1,3.666a.6.6,0,0,0,.937-.358l3.737-17.792a.6.6,0,0,0-.8-.673L974.366,55A.59.59,0,0,0,974.372,56.108Zm6.722.877,9.917-6.045a.172.172,0,0,1,.209.271l-8.185,7.53a1.673,1.673,0,0,0-.526,1l-.279,2.045a.257.257,0,0,1-.5.036L980.658,58.1A.984.984,0,0,1,981.094,56.985Z" transform="translate(6.017 -0.009)"/></g></svg>