<svg xmlns="http://www.w3.org/2000/svg" width="24" height="24" viewBox="0 0 24 24"><defs><style>.a{fill:#fff;}.b{fill:#fff;opacity:0;}</style></defs><g transform="translate(-893 -44)"><path class="a" d="M923.978,55.69a11.8,11.8,0,0,1-17.47,10.236L899.989,68l2.126-6.273a11.572,11.572,0,0,1-1.69-6.036,11.777,11.777,0,0,1,23.554,0ZM912.2,45.862a9.876,9.876,0,0,0-9.9,9.829,9.727,9.727,0,0,0,1.886,5.763l-1.237,3.65,3.8-1.21A9.853,9.853,0,1,0,912.2,45.862Zm5.947,12.521c-.073-.119-.265-.191-.553-.335s-1.709-.837-1.972-.932-.458-.144-.65.143-.745.932-.914,1.123-.337.216-.626.072a7.9,7.9,0,0,1-2.321-1.422,8.625,8.625,0,0,1-1.606-1.984c-.168-.286-.018-.441.127-.584s.289-.335.433-.5a1.932,1.932,0,0,0,.288-.478.523.523,0,0,0-.024-.5c-.072-.143-.65-1.553-.89-2.127s-.481-.478-.649-.478-.361-.024-.553-.024a1.064,1.064,0,0,0-.77.358,3.2,3.2,0,0,0-1.01,2.39,5.547,5.547,0,0,0,1.179,2.964,11.8,11.8,0,0,0,4.931,4.326c2.935,1.147,2.935.765,3.465.717a2.917,2.917,0,0,0,1.949-1.362A2.385,2.385,0,0,0,918.148,58.383Z" transform="translate(-6.989 0)"/><rect class="b" width="24" height="24" transform="translate(893 44)"/></g></svg>